<svg width="19" height="19" viewBox="0 0 19 19" fill="none" xmlns="http://www.w3.org/2000/svg">
<path d="M18.5654 17.5743L13.7888 12.8822C15.0397 11.5256 15.8082 9.73136 15.8082 7.75705C15.8076 3.53363 12.3229 0.110352 8.02393 0.110352C3.72497 0.110352 0.240234 3.53363 0.240234 7.75705C0.240234 11.9805 3.72497 15.4037 8.02393 15.4037C9.88138 15.4037 11.585 14.7624 12.9232 13.6961L17.7183 18.4068C17.9519 18.6365 18.3312 18.6365 18.5649 18.4068C18.7991 18.177 18.7991 17.8041 18.5654 17.5743ZM8.02393 14.2273C4.38654 14.2273 1.43787 11.3305 1.43787 7.75705C1.43787 4.18364 4.38654 1.28684 8.02393 1.28684C11.6614 1.28684 14.61 4.18364 14.61 7.75705C14.61 11.3305 11.6614 14.2273 8.02393 14.2273Z" fill="#DC1B32"/>
</svg>
